<svg xmlns="http://www.w3.org/2000/svg" viewBox="0 0 32 32">
  <!-- Background -->
  <rect width="32" height="32" rx="7" fill="#1a1410"/>

  <!-- Blade -->
  <path d="M16 2 L17.6 14 L16 15.8 L14.4 14 Z" fill="#e8dcc8"/>
  <!-- Blade center line for depth -->
  <path d="M16 2 L16 15.8 L14.4 14 Z" fill="rgba(255,255,255,0.15)"/>

  <!-- Crossguard -->
  <path d="M8 16.8 C8 15.8 9.5 15.2 11.2 15.8 L16 16.8 L20.8 15.8 C22.5 15.2 24 15.8 24 16.8 C24 17.8 22.5 18.4 20.8 17.8 L16 16.8 L11.2 17.8 C9.5 18.4 8 17.8 8 16.8Z" fill="#d4a84b"/>

  <!-- Grip -->
  <rect x="15.2" y="17.2" width="1.6" height="6.8" rx="0.8" fill="#4a2e10"/>
  <!-- Grip wraps -->
  <rect x="15" y="18.8" width="2" height="0.7" rx="0.3" fill="#6a4020"/>
  <rect x="15" y="20.5" width="2" height="0.7" rx="0.3" fill="#6a4020"/>
  <rect x="15" y="22.2" width="2" height="0.7" rx="0.3" fill="#6a4020"/>

  <!-- Pommel -->
  <circle cx="16" cy="27.2" r="2.4" fill="#d4a84b"/>
  <circle cx="16" cy="27.2" r="1.1" fill="#f0c870"/>
  <circle cx="16" cy="27.2" r="0.45" fill="#1a1410"/>
</svg>
